<?xml version="1.0" encoding="utf-8"?>
<!-- Generator: Adobe Illustrator 19.2.1, SVG Export Plug-In . SVG Version: 6.00 Build 0)  -->
<svg version="1.1" id="Layer_1" xmlns="http://www.w3.org/2000/svg" xmlns:xlink="http://www.w3.org/1999/xlink" x="0px" y="0px"
	 viewBox="0 0 100.032 150" style="enable-background:new 0 0 100.032 150;" xml:space="preserve">
<style type="text/css">
	.st0{fill:#895734;}
	.st1{fill:#FFFFFF;}
	.st2{fill:#CBDEAE;}
	.st3{fill:#869A42;}
	.st4{fill:#6D6E71;}
	.st5{fill:#B6B8BA;}
	.st6{fill:#414042;}
	.st7{fill:#C6C5C6;}
	.st8{fill:#333233;}
	.st9{fill:#D7AC79;}
	.st10{fill:#FFD425;}
	.st11{fill:#C18049;}
	.st12{fill:#C39A61;}
	.st13{fill:#FFBB28;}
	.st14{fill:#B16F3B;}
	.st15{fill:#474A4C;}
	.st16{fill:#E0E1E2;}
	.st17{fill:#CED0D1;}
	.st18{fill:#6DD093;}
	.st19{fill:#73D9FF;}
	.st20{fill:#B3A092;}
	.st21{fill:#73747A;}
	.st22{fill:#E58B7E;}
	.st23{fill:#A3D3E3;}
	.st24{fill:#EDC98B;}
	.st25{fill:#C2E0BB;}
	.st26{fill:#F1B2AD;}
	.st27{fill:#EDB86E;}
	.st28{fill:#F1999C;}
	.st29{fill:#9F755A;}
	.st30{fill:#D8A899;}
	.st31{fill:#F5AA40;}
	.st32{fill:#C88F7B;}
	.st33{fill:#EBECEC;}
	.st34{fill:#F19C1A;}
	.st35{fill:#594A42;}
	.st36{fill:#84949D;}
	.st37{fill:#CBCDCE;}
	.st38{fill:#B4CDFF;}
	.st39{fill:#9CCCA1;}
	.st40{fill:#86BB8B;}
	.st41{fill:#99B5E8;}
	.st42{fill:#4A5F68;}
	.st43{fill:#FFB455;}
	.st44{fill:#E99443;}
	.st45{fill:#FFC75D;}
	.st46{fill:#F12C23;}
	.st47{fill:#8E1E1A;}
	.st48{opacity:0.4;}
	.st49{fill:none;}
	.st50{fill:#BCD6FF;}
	.st51{fill:#475CCA;}
	.st52{fill:#958079;}
	.st53{fill:#D0945B;}
	.st54{fill:#7C6A64;}
	.st55{fill:#B3804D;}
	.st56{fill:#5E3D56;}
	.st57{fill:#4A4A4B;}
	.st58{fill:#FFBD56;}
	.st59{opacity:0.7;fill:#FFB13C;}
	.st60{fill:#312E32;}
	.st61{fill:#DFA74D;}
	.st62{fill:#F2F2F2;}
	.st63{fill:#2B4980;}
	.st64{fill:#4B5974;}
	.st65{fill:#647597;}
	.st66{fill:#A1DB93;}
	.st67{fill:#FFE98C;}
	.st68{fill:#393C5D;}
	.st69{fill:#73DEDF;}
	.st70{fill:#3CC9D1;}
	.st71{fill:#91E7E9;}
	.st72{fill:#231F3A;}
	.st73{fill:#739EAD;}
	.st74{fill:#A9BB83;}
	.st75{fill:#92AD6D;}
	.st76{fill:#6083A0;}
	.st77{fill:#FAA969;}
	.st78{fill:#E6965F;}
	.st79{fill:#F4909D;}
	.st80{fill:#E07A86;}
	.st81{fill:#344072;}
</style>
<g>
	<g>
		<path class="st73" d="M85.822,86h-11.86c-0.81-25.1-11.67-44.98-24.94-44.98c24.96,0,45.37,19.88,46.89,44.97L95.762,86H85.822z"
			/>
	</g>
	<g>
		<path class="st74" d="M58.012,86h-8.99V41.02c13.27,0,24.13,19.88,24.94,44.98H58.012z"/>
	</g>
	<g>
		<path class="st75" d="M49.022,41.02v4.839C56.899,53.234,62.461,68.315,63.032,86h10.93C73.152,60.9,62.292,41.02,49.022,41.02z"
			/>
	</g>
	<g>
		<path class="st76" d="M49.022,41.02c4.494,0,8.71,2.286,12.355,6.278c13.38,7.793,22.65,22.1,23.655,38.692L84.882,86h0.94h9.94
			l0.15-0.01C94.392,60.9,73.982,41.02,49.022,41.02z"/>
	</g>
	<g>
		<path class="st77" d="M40.032,86h-15.95c0.81-25.1,11.67-44.98,24.94-44.98V86H40.032z"/>
	</g>
	<g>
		<path class="st78" d="M49.022,45.041V41.02c-13.27,0-24.13,19.88-24.94,44.98h10.01C34.685,67.634,40.661,52.075,49.022,45.041z"
			/>
	</g>
	<g>
		<path class="st79" d="M12.222,86H2.132c1.51-25.1,21.93-44.98,46.89-44.98c-13.27,0-24.13,19.88-24.94,44.98H12.222z"/>
	</g>
	<g>
		<path class="st80" d="M37.657,46.268c3.41-3.352,7.272-5.249,11.365-5.249c-24.96,0-45.38,19.88-46.89,44.98h10.01
			C13.186,68.642,23.277,53.785,37.657,46.268z"/>
	</g>
	<g>
		<path class="st81" d="M97.908,85.869C96.317,59.599,74.844,39.02,49.022,39.02c-25.685,0-47.052,20.353-48.848,46.395
			C0.12,85.601,0.082,85.795,0.082,86c0,0.104,0.016,0.203,0.032,0.303c-0.051,0.864-0.082,1.766-0.082,2.707c0,1.104,0.896,2,2,2
			s2-0.896,2-2c0-0.344,0.009-0.676,0.016-1.01h6.047c-0.024,0.583-0.034,1.16-0.037,1.732c-0.011,0.086-0.026,0.17-0.026,0.259V93
			c0,1.104,0.896,2,2,2s2-0.896,2-2v-2.806c0.007-0.068,0.021-0.134,0.021-0.203c0-0.653,0.017-1.318,0.047-1.99h7.949
			c-0.004,0.338-0.017,0.671-0.017,1.01c0,1.104,0.896,2,2,2s2-0.896,2-2c0-0.339,0.012-0.671,0.017-1.01h11.983v5
			c0,1.104,0.896,2,2,2s2-0.896,2-2v-5h4.99v51.01c0,3.854-3.141,6.99-7,6.99c-3.854,0-6.99-3.136-6.99-6.99c0-1.104-0.896-2-2-2
			s-2,0.896-2,2c0,6.06,4.931,10.99,10.99,10.99c6.065,0,11-4.931,11-10.99V88h4.99v5c0,1.104,0.896,2,2,2s2-0.896,2-2v-5h11.983
			c0.004,0.338,0.017,0.671,0.017,1.01c0,1.104,0.896,2,2,2s2-0.896,2-2c0-0.338-0.013-0.672-0.017-1.01h7.949
			c0.03,0.672,0.047,1.337,0.047,1.99c0,0.07,0.014,0.136,0.021,0.203V93c0,1.104,0.896,2,2,2s2-0.896,2-2v-3.01
			c0-0.089-0.015-0.173-0.026-0.259c-0.003-0.572-0.013-1.148-0.037-1.732h6.047c0.007,0.334,0.016,0.666,0.016,1.01
			c0,1.104,0.896,2,2,2s2-0.896,2-2C98.012,87.909,97.977,86.846,97.908,85.869z M93.737,84H87.63
			c-0.52-4.363-1.618-8.643-3.274-12.748c-0.412-1.024-1.577-1.518-2.603-1.107c-1.024,0.414-1.52,1.579-1.106,2.603
			C82.11,76.375,83.094,80.15,83.594,84h-7.72c-0.897-17.18-6.245-31.431-13.901-39.031C78.908,50.187,91.759,65.367,93.737,84z
			 M36.074,44.967C28.418,52.566,23.068,66.817,22.17,84h-7.72c0.499-3.845,1.483-7.622,2.946-11.252
			c0.413-1.024-0.082-2.189-1.106-2.603c-1.024-0.411-2.19,0.083-2.603,1.107c-1.657,4.109-2.755,8.39-3.274,12.748H4.306
			C6.273,65.371,19.128,50.185,36.074,44.967z M42.032,84v-2c0-1.104-0.896-2-2-2s-2,0.896-2,2v2H26.174
			c1.203-21.452,10.172-38.834,20.849-40.789V84H42.032z M58.012,80c-1.104,0-2,0.896-2,2v2h-4.99V43.211
			C61.699,45.166,70.669,62.55,71.87,84H60.012v-2C60.012,80.896,59.117,80,58.012,80z"/>
		<path class="st81" d="M12.032,97c-1.104,0-2,0.896-2,2v3c0,1.104,0.896,2,2,2s2-0.896,2-2v-3C14.032,97.896,13.137,97,12.032,97z"
			/>
		<path class="st81" d="M32.032,106c1.104,0,2-0.896,2-2V93c0-1.104-0.896-2-2-2s-2,0.896-2,2v11
			C30.032,105.104,30.928,106,32.032,106z"/>
		<path class="st81" d="M30.032,113c0,1.104,0.896,2,2,2s2-0.896,2-2v-3c0-1.104-0.896-2-2-2s-2,0.896-2,2V113z"/>
		<path class="st81" d="M42.032,102v-3c0-1.104-0.896-2-2-2s-2,0.896-2,2v3c0,1.104,0.896,2,2,2S42.032,103.104,42.032,102z"/>
		<path class="st81" d="M86.012,97c-1.104,0-2,0.896-2,2v3c0,1.104,0.896,2,2,2s2-0.896,2-2v-3C88.012,97.896,87.117,97,86.012,97z"
			/>
		<path class="st81" d="M66.012,91c-1.104,0-2,0.896-2,2v11c0,1.104,0.896,2,2,2s2-0.896,2-2V93C68.012,91.896,67.117,91,66.012,91z
			"/>
		<path class="st81" d="M66.012,108c-1.104,0-2,0.896-2,2v3c0,1.104,0.896,2,2,2s2-0.896,2-2v-3
			C68.012,108.896,67.117,108,66.012,108z"/>
		<path class="st81" d="M58.012,97c-1.104,0-2,0.896-2,2v3c0,1.104,0.896,2,2,2s2-0.896,2-2v-3C60.012,97.896,59.117,97,58.012,97z"
			/>
	</g>
</g>
</svg>
